<svg xmlns="http://www.w3.org/2000/svg" viewBox="0 0 900 900"><rect width="900" height="900" fill="#0b0e14"/><circle cx="450" cy="450" r="310" fill="#111722"/><circle cx="450" cy="450" r="250" fill="none" stroke="#d7b46a" stroke-width="3" opacity=".5"/><rect x="325" y="130" width="250" height="520" rx="42" fill="#080a0f" stroke="#efebe2" stroke-opacity=".25" stroke-width="6"/><rect x="348" y="175" width="204" height="410" rx="20" fill="#151b26"/><circle cx="450" cy="610" r="16" fill="#d7b46a"/><g fill="#efebe2" opacity=".88"><rect x="375" y="220" width="150" height="44" rx="16"/><rect x="375" y="286" width="118" height="44" rx="16"/><rect x="375" y="352" width="150" height="44" rx="16"/><rect x="375" y="418" width="96" height="44" rx="16"/></g><g stroke="#8e3b46" stroke-width="4" opacity=".7"><path d="M185 230c100 34 124 100 104 201"/><path d="M715 640c-91-24-130-82-119-175"/><path d="M174 656c86-49 157-36 212 39"/></g><text x="450" y="760" text-anchor="middle" fill="#d7b46a" font-family="Arial" font-size="24" letter-spacing="4">ATTENTION ON DISPLAY</text></svg>